<svg xmlns="http://www.w3.org/2000/svg" viewBox="0 0 96 96" role="img" aria-label="MINI GIANT pixel gun logo"><rect width="96" height="96" rx="21" fill="#10232e"/><rect x="2" y="2" width="92" height="92" rx="19" fill="none" stroke="#405664"/><rect x="18" y="18" width="18" height="2" fill="#406173"/><rect x="60" y="18" width="18" height="2" fill="#406173"/><rect x="18" y="18" width="2" height="9" fill="#406173"/><rect x="76" y="18" width="2" height="9" fill="#406173"/><rect x="14" y="36" width="14" height="18" fill="#526d7a"/><rect x="18" y="40" width="10" height="10" fill="#213741"/><rect x="28" y="32" width="40" height="18" fill="#e1e4d6"/><rect x="32" y="28" width="8" height="4" fill="#e1e4d6"/><rect x="60" y="28" width="6" height="4" fill="#e1e4d6"/><rect x="68" y="36" width="14" height="10" fill="#adc3c5"/><rect x="78" y="38" width="6" height="6" fill="#e6bf76"/><rect x="28" y="44" width="12" height="8" fill="#a6bdc2"/><rect x="42" y="50" width="10" height="14" fill="#a6bdc2"/><rect x="40" y="62" width="12" height="4" fill="#526d7a"/><rect x="56" y="50" width="8" height="12" fill="#d0a65c"/><rect x="32" y="36" width="32" height="4" fill="#e6bf76"/><rect x="52" y="40" width="10" height="4" fill="#253d49"/><rect x="30" y="40" width="4" height="4" fill="#7796a0"/><rect x="36" y="40" width="4" height="4" fill="#7796a0"/><rect x="66" y="36" width="4" height="10" fill="#526d7a"/><rect x="72" y="38" width="4" height="2" fill="#78d5ce"/><rect x="52" y="50" width="4" height="2" fill="#526d7a"/><rect x="52" y="56" width="4" height="2" fill="#526d7a"/><rect x="20" y="71" width="2" height="2" fill="#e6bf76"/><rect x="22" y="71" width="2" height="2" fill="#e6bf76"/><rect x="24" y="71" width="2" height="2" fill="#e6bf76"/><rect x="26" y="71" width="2" height="2" fill="#e6bf76"/><rect x="20" y="73" width="2" height="2" fill="#e6bf76"/><rect x="20" y="75" width="2" height="2" fill="#e6bf76"/><rect x="24" y="75" width="2" height="2" fill="#e6bf76"/><rect x="26" y="75" width="2" height="2" fill="#e6bf76"/><rect x="20" y="77" width="2" height="2" fill="#e6bf76"/><rect x="26" y="77" width="2" height="2" fill="#e6bf76"/><rect x="20" y="79" width="2" height="2" fill="#e6bf76"/><rect x="22" y="79" width="2" height="2" fill="#e6bf76"/><rect x="24" y="79" width="2" height="2" fill="#e6bf76"/><rect x="26" y="79" width="2" height="2" fill="#e6bf76"/><rect x="32" y="71" width="2" height="2" fill="#e6bf76"/><rect x="34" y="71" width="2" height="2" fill="#e6bf76"/><rect x="36" y="71" width="2" height="2" fill="#e6bf76"/><rect x="38" y="71" width="2" height="2" fill="#e6bf76"/><rect x="34" y="73" width="2" height="2" fill="#e6bf76"/><rect x="36" y="73" width="2" height="2" fill="#e6bf76"/><rect x="34" y="75" width="2" height="2" fill="#e6bf76"/><rect x="36" y="75" width="2" height="2" fill="#e6bf76"/><rect x="34" y="77" width="2" height="2" fill="#e6bf76"/><rect x="36" y="77" width="2" height="2" fill="#e6bf76"/><rect x="32" y="79" width="2" height="2" fill="#e6bf76"/><rect x="34" y="79" width="2" height="2" fill="#e6bf76"/><rect x="36" y="79" width="2" height="2" fill="#e6bf76"/><rect x="38" y="79" width="2" height="2" fill="#e6bf76"/><rect x="46" y="71" width="2" height="2" fill="#e6bf76"/><rect x="48" y="71" width="2" height="2" fill="#e6bf76"/><rect x="44" y="73" width="2" height="2" fill="#e6bf76"/><rect x="50" y="73" width="2" height="2" fill="#e6bf76"/><rect x="44" y="75" width="2" height="2" fill="#e6bf76"/><rect x="46" y="75" width="2" height="2" fill="#e6bf76"/><rect x="48" y="75" width="2" height="2" fill="#e6bf76"/><rect x="50" y="75" width="2" height="2" fill="#e6bf76"/><rect x="44" y="77" width="2" height="2" fill="#e6bf76"/><rect x="50" y="77" width="2" height="2" fill="#e6bf76"/><rect x="44" y="79" width="2" height="2" fill="#e6bf76"/><rect x="50" y="79" width="2" height="2" fill="#e6bf76"/><rect x="56" y="71" width="2" height="2" fill="#e6bf76"/><rect x="62" y="71" width="2" height="2" fill="#e6bf76"/><rect x="56" y="73" width="2" height="2" fill="#e6bf76"/><rect x="58" y="73" width="2" height="2" fill="#e6bf76"/><rect x="62" y="73" width="2" height="2" fill="#e6bf76"/><rect x="56" y="75" width="2" height="2" fill="#e6bf76"/><rect x="60" y="75" width="2" height="2" fill="#e6bf76"/><rect x="62" y="75" width="2" height="2" fill="#e6bf76"/><rect x="56" y="77" width="2" height="2" fill="#e6bf76"/><rect x="62" y="77" width="2" height="2" fill="#e6bf76"/><rect x="56" y="79" width="2" height="2" fill="#e6bf76"/><rect x="62" y="79" width="2" height="2" fill="#e6bf76"/><rect x="68" y="71" width="2" height="2" fill="#e6bf76"/><rect x="70" y="71" width="2" height="2" fill="#e6bf76"/><rect x="72" y="71" width="2" height="2" fill="#e6bf76"/><rect x="74" y="71" width="2" height="2" fill="#e6bf76"/><rect x="70" y="73" width="2" height="2" fill="#e6bf76"/><rect x="72" y="73" width="2" height="2" fill="#e6bf76"/><rect x="70" y="75" width="2" height="2" fill="#e6bf76"/><rect x="72" y="75" width="2" height="2" fill="#e6bf76"/><rect x="70" y="77" width="2" height="2" fill="#e6bf76"/><rect x="72" y="77" width="2" height="2" fill="#e6bf76"/><rect x="70" y="79" width="2" height="2" fill="#e6bf76"/><rect x="72" y="79" width="2" height="2" fill="#e6bf76"/></svg>